<svg id="Слой_1" data-name="Слой 1" xmlns="http://www.w3.org/2000/svg" viewBox="0 0 464 469.67"><defs><style>.cls-1{fill:none;}.cls-2{fill:#80deea;}</style></defs><path class="cls-1" d="M24,21V485H488V21ZM295.81,322c-12.51,1-25.66,1.58-39.37,1.58s-27-.55-39.51-1.59Q206,306.37,195.54,288.31c-6.94-12-13.1-23.81-18.5-35.3,5.4-11.5,11.56-23.3,18.5-35.31,6.84-11.78,14.05-23.06,21.53-33.72,12.51-1,25.66-1.58,39.37-1.58S283.4,183,296,184q10.91,15.64,21.39,33.71c6.82,11.75,13,23.57,18.52,35.31-5.51,11.73-11.7,23.54-18.52,35.3S303.29,311.38,295.81,322Z" transform="translate(-24 -21)"/><path class="cls-2" d="M342.18,21.33H171.52a53.36,53.36,0,0,0-53.34,53.34V437.33a53.33,53.33,0,0,0,53.34,53.34H342.18a53.33,53.33,0,0,0,53.34-53.34V74.67A53.36,53.36,0,0,0,342.18,21.33Zm-85.33,384a32,32,0,1,1-32,32A32,32,0,0,1,256.85,405.33Zm96-320V384h-192V85.33Z" transform="translate(-24 -21)"/><path class="cls-2" d="M353.16,253c-6.64,14.12-14.09,28.34-22.3,42.49S314,323.27,304.94,336.1c-15.05,1.24-30.88,1.9-47.39,1.9s-32.45-.66-47.56-1.91q-13.12-18.85-25.75-40.6C175.89,281,168.47,266.83,162,253c6.5-13.84,13.92-28.05,22.27-42.51,8.23-14.18,16.91-27.76,25.92-40.59,15.06-1.24,30.89-1.9,47.39-1.9s32.46.66,47.56,1.91q13.13,18.84,25.75,40.58C339.07,224.64,346.52,238.87,353.16,253Z" transform="translate(-24 -21)"/></svg>